<svg version="1.1"
     xmlns="http://www.w3.org/2000/svg"
     x="0px"
     y="0px"
     viewBox="0 0 231 78">
        <g>
            <path fill="#662d91" d="M33.8,40.7c-0.8,5.1-1.4,11.7,1.2,12.7l-0.2,0.2c-1.4,0.3-2.8,0.4-4.2,0.4c-5,0-9.5-2.1-7.7-9.5l1.8-9.1
                    l-0.2-0.1C21.1,49.9,16.6,54.1,11,54.1c-5.6,0-8.8-3.6-8.8-10c0-9.6,6.7-22,19.1-22c1.7,0,2.7,0.1,4,0.5l-0.1,0.2
                    C17.8,23.2,13,38.4,12.8,47.9c-0.1,2.5,0.5,4.3,1.8,4.3c3.3,0,7.6-7.4,9.2-16.9l4.1-24.4c0.2-1.2-0.8-2.1-2.4-1.5l-0.2-0.2
                    c2.1-1,6.2-2.3,9.1-2.3c3.4,0,4.7,1.2,4,5.3L33.8,40.7z"/>
            <path fill="#662d91" d="M67.9,35.4c0,9.8-8.9,18.6-19.4,18.6c-8.5,0-14.3-5.6-14.3-13.4c0-10.1,8.7-18.5,19.4-18.5
                    C62,22.1,67.9,27.6,67.9,35.4z M57,28.7c0-3.5-0.8-6.2-3.6-6.2c-6.5,0-8.5,18.7-8.5,24.9c0,3.5,0.8,6.1,3.6,6.1
                    C55.1,52.8,57,35.7,57,28.7z"/>
            <path fill="#662d91" d="M96.5,40.7c-0.9,5.1-1.4,11.7,1.2,12.7l-0.2,0.2c-1.4,0.3-2.8,0.4-4.2,0.4c-5,0-9.5-2.1-7.7-9.5l2.2-9.1
                    l-0.2-0.1c-4,15.2-7.9,18.7-14.2,18.7c-8.2,0-7.9-6.1-7.3-10.2L69,26.1c0.2-1.2-0.8-2.1-2.4-1.5l-0.2-0.2c2.1-1,6.2-2.3,9.1-2.3
                    c3.4,0,4.6,1.2,3.9,5.3l-3.1,19c-0.5,2.8,0.1,4.5,1.9,4.5c3.6,0,6.5-6.8,8.7-15.6c1-4.1,2.7-11.7,0.7-12.7l0.2-0.2
                    c8.1-0.6,12.3-0.4,10.5,9.1L96.5,40.7z"/>
            <path fill="#662d91" d="M109.6,34.5c3.2-10.1,7.3-12.9,12-12.9c5.6,0,8.8,3.6,8.8,10c0,9.6-6,22.5-18.4,22.5
                    c-8.9,0-15.4-5.6-14.2-13.7l4.7-29.5c0.2-1.2-0.8-2.1-2.4-1.5l-0.2-0.2c2.1-1,6.2-2.3,9.1-2.3c3.4,0,4.7,1.2,4,5.3l-5.7,34.8
                    c-0.2,1.1-1.1,6.2,1.5,6.2c5.2,0,11-16.1,11-25.3c0-2.5-0.4-4.3-1.6-4.3c-2.4,0-5.9,4.1-8.1,11.1L109.6,34.5z"/>
            <path
                    fill="#662d91" d="M132.8,10.9c0.2-1.2-0.8-2.1-2.4-1.5l-0.2-0.2c2.1-1,6.2-2.3,9.1-2.3c3.4,0,4.6,1.2,3.9,5.3L138.6,41
                    c-0.7,4.1-2.1,11.7-0.1,12.7l-0.2,0.2c-4.3,0.7-12.5,0.4-10.9-9.1L132.8,10.9z"/>
            <path fill="#662d91" d="M161.7,26.4c0-2.3-1.4-3.9-3.4-3.9c-4.6,0-7.8,7.2-8.2,13.2c-0.4,6.3,1.9,11.8,8.5,11.8
                    c2.7,0,6.3-0.9,9.1-4.2l0.4,0.2c-3.7,6.2-10,10.5-16.9,10.5c-7.2,0-12.3-4.7-12.3-12.7c0-10.1,8.7-19.3,19.9-19.3
                    c4.6,0,11.4,1.1,11.4,6.6c0,4.4-5.1,10.1-19.7,6.3l0.1-0.2C158.6,35.2,161.7,30.6,161.7,26.4z"/>
            <g>
                <g>
                    <path fill="#662d91" d="M173.8,46.2c-0.5,2.3-1.3,6.8-1.3,8.6c0,7.4,3.1,15.6,14.2,15.1c29.1-1.4,42.4-30.2,42.4-30.2
                        c-9.7,21.6-28.4,35.4-46.2,35.4c-14.6,0-21.9-9.2-21.9-20.8c0-21.4,24.4-51.8,45.7-51.8c5.6,0,11.1,2.2,11.1,11
                        C217.8,31.8,194.3,44.3,173.8,46.2z M174.1,44.9c12.8-4.5,35.8-17.3,35.8-32.7c0-2.7-0.7-4.1-3.8-4.1
                        C194.6,8.1,179,27.9,174.1,44.9z"/>
                    <g>
                        <path fill="#662d91" d="M173.8,46.2c-0.4,1.8-0.7,3.6-1,5.3c-0.1,0.9-0.3,1.8-0.3,2.7c0,0.9,0,1.8,0.1,2.7
                            c0.2,1.8,0.5,3.6,1.2,5.3c0.7,1.7,1.6,3.3,3,4.5c1.3,1.2,3,2.1,4.7,2.6c1.7,0.5,3.6,0.6,5.4,0.5c0.9-0.1,1.8-0.1,2.7-0.2
                            c0.9-0.1,1.8-0.2,2.7-0.4c1.8-0.3,3.5-0.8,5.3-1.3c0.9-0.3,1.7-0.5,2.5-0.9l1.3-0.5l1.2-0.6c1.6-0.7,3.2-1.6,4.8-2.6
                            c1.5-1,3-2,4.4-3.1c1.4-1.1,2.8-2.3,4.1-3.5c2.6-2.5,5-5.2,7.1-8.1c1.1-1.4,2.1-2.9,3-4.5c0.9-1.5,1.8-3.1,2.6-4.7
                            c0.2-0.4,0.6-0.5,1-0.4c0.4,0.2,0.5,0.6,0.4,1c-4.2,9.5-10.3,18.3-18.4,25.1c-4,3.4-8.5,6.2-13.4,8.2c-4.9,2-10.2,3.3-15.6,3.2
                            c-2.6,0-5.4-0.4-8-1.1c-2.6-0.8-5.1-2-7.3-3.8c-2.2-1.7-3.9-4-5.2-6.5c-1.2-2.5-1.9-5.2-2.2-7.9c-0.1-0.7-0.1-1.4-0.1-2l0-1
                            l0-1c0.1-1.4,0.2-2.7,0.4-4c0.4-2.6,1.1-5.2,2-7.7c1.8-5,4.2-9.7,7.1-14c2.9-4.4,6.3-8.4,10-12.1c3.8-3.6,7.9-6.9,12.6-9.4
                            c4.6-2.5,9.8-4.2,15.1-4.1c2.6,0,5.4,0.6,7.6,2.2c1.1,0.8,2,1.9,2.6,3.1c0.6,1.2,0.9,2.5,1.1,3.9c0.2,1.3,0.1,2.7,0,3.9
                            c-0.1,0.6-0.2,1.3-0.3,2c-0.1,0.6-0.2,1.3-0.4,1.9c-0.7,2.5-1.8,4.9-3.3,7.1c-2.9,4.3-6.9,7.8-11.2,10.6
                            c-4.4,2.8-9.1,4.9-14,6.5C184,44.7,179,45.8,173.8,46.2z M173.8,46.2c5.1-0.5,10.2-1.6,15.1-3.3c4.9-1.6,9.6-3.8,13.9-6.7
                            c4.3-2.8,8.2-6.3,11-10.6c2.7-4.3,4.1-9.5,3.5-14.5c-0.3-2.5-1.4-4.9-3.4-6.2c-2-1.4-4.5-1.8-7-1.8c-5,0.1-9.9,1.8-14.3,4.3
                            c-4.4,2.5-8.4,5.8-11.9,9.4c-3.6,3.6-6.7,7.6-9.4,11.9c-2.7,4.3-5,8.8-6.6,13.6c-0.8,2.4-1.4,4.8-1.8,7.3
                            c-0.2,1.2-0.3,2.5-0.4,3.7l0,1l0,0.9c0,0.6,0.1,1.2,0.1,1.8c0.3,2.4,0.9,4.8,2,6.9c1.1,2.1,2.6,4,4.4,5.5
                            c3.7,3,8.6,4.3,13.6,4.4c4.9,0.1,9.9-0.9,14.6-2.8c4.7-1.8,9-4.5,13-7.6c7.9-6.3,14.1-14.7,18.5-23.9l1.3,0.6
                            c-0.8,1.7-1.8,3.2-2.8,4.8c-1,1.5-2.1,3-3.2,4.5c-2.2,2.9-4.7,5.6-7.4,8.1c-1.4,1.2-2.8,2.4-4.2,3.5c-1.5,1.1-3,2.1-4.6,3
                            c-1.6,0.9-3.2,1.8-4.9,2.5l-1.3,0.5l-1.3,0.5c-0.8,0.3-1.7,0.6-2.6,0.9c-1.7,0.5-3.5,0.9-5.3,1.2c-0.9,0.2-1.8,0.2-2.7,0.4
                            c-0.9,0.1-1.8,0.1-2.7,0.2c-1.8,0.1-3.7,0-5.4-0.5c-1.8-0.5-3.4-1.4-4.7-2.6c-1.3-1.3-2.3-2.8-3-4.5c-0.7-1.7-1-3.5-1.2-5.3
                            c-0.1-0.9-0.1-1.8-0.1-2.7c0.1-0.9,0.2-1.8,0.3-2.7C173.1,49.8,173.4,48,173.8,46.2z"/>
                        <path fill="#662d91" d="M174.1,44.9c0,0,0.4-0.1,1.1-0.4c0.7-0.3,1.8-0.7,3.2-1.3c1.4-0.6,3-1.3,4.8-2.3c1.8-1,3.9-2.1,6-3.5
                            c4.3-2.7,9-6.4,13.1-11.1c2-2.4,3.8-5,4.9-8c0.6-1.5,1-3,1.1-4.5c0.1-0.4,0-0.8,0.1-1.2c0-0.2,0-0.4,0-0.6c0-0.2,0-0.4,0-0.6
                            c0-0.7-0.2-1.3-0.5-1.5c-0.1-0.1-0.2-0.2-0.5-0.3c-0.2-0.1-0.5-0.2-0.9-0.2c-0.2,0-0.3,0-0.5,0l-0.6,0c-0.5,0-0.8,0.1-1.1,0.1
                            c-1.4,0.2-2.9,0.8-4.4,1.5c-1.4,0.7-2.8,1.5-4.1,2.5c-1.3,0.9-2.5,1.9-3.7,3c-2.3,2.1-4.4,4.3-6.3,6.5
                            c-1.9,2.2-3.5,4.5-4.8,6.6c-1.4,2.1-2.5,4.2-3.4,6c-1,1.8-1.6,3.5-2.2,4.9c-0.5,1.4-0.9,2.5-1.2,3.2
                            C174.2,44.5,174.1,44.9,174.1,44.9z M174.1,44.9c0,0,0.1-0.4,0.3-1.2c0.2-0.8,0.6-1.9,1.1-3.3c0.5-1.4,1.2-3.1,2-5
                            c0.8-1.9,1.9-4,3.1-6.2c1.2-2.2,2.7-4.6,4.4-7c1.7-2.4,3.6-4.9,5.9-7.2c2.2-2.3,4.8-4.6,7.9-6.3c1.6-0.9,3.2-1.5,5.1-1.9
                            c0.5-0.1,1-0.2,1.4-0.2l0.7,0c0.2,0,0.5,0,0.7,0c0.5,0,1.1,0.1,1.6,0.3c0.6,0.2,1.2,0.6,1.6,1.1c0.5,0.5,0.7,1.1,0.9,1.7
                            c0.2,0.6,0.2,1.1,0.2,1.6c0.1,0.9,0,1.9-0.1,2.8c-0.2,1.8-0.7,3.6-1.5,5.2c-0.7,1.6-1.6,3.1-2.6,4.5c-1,1.4-2.1,2.6-3.3,3.8
                            c-2.3,2.3-4.8,4.3-7.2,5.9c-2.4,1.7-4.8,3.1-7,4.3c-2.2,1.2-4.3,2.3-6.2,3.2c-1.9,0.9-3.5,1.6-4.9,2.2c-1.4,0.6-2.5,1-3.2,1.3
                            C174.5,44.8,174.1,44.9,174.1,44.9z"/>
                    </g>
                </g>
            </g>
            <g>
                <path fill="#662d91" d="M3.8,72.1V61.4h3.4c0.8,0,1.6,0.1,2.3,0.4c0.7,0.3,1.2,0.7,1.7,1.2s0.8,1.1,1.1,1.7s0.4,1.3,0.4,2.1
                    s-0.1,1.4-0.4,2.1s-0.6,1.2-1.1,1.7c-0.5,0.5-1,0.9-1.7,1.1c-0.7,0.3-1.4,0.4-2.3,0.4H3.8z M7.2,71.3c0.7,0,1.3-0.1,1.9-0.4
                    c0.6-0.2,1-0.6,1.4-1c0.4-0.4,0.7-0.9,0.9-1.4c0.2-0.5,0.3-1.1,0.3-1.8c0-0.6-0.1-1.2-0.3-1.8c-0.2-0.6-0.5-1-0.9-1.4
                    c-0.4-0.4-0.8-0.7-1.4-1c-0.6-0.2-1.2-0.4-1.9-0.4H4.7v9.1H7.2z"/>
                <path fill="#662d91" d="M32.7,72.1V61.4h6.8v0.8h-5.9v4h5.8V67h-5.8v4.3h5.9v0.8H32.7z"/>
                <path fill="#662d91" d="M62.8,72.3c-0.9,0-1.7-0.2-2.3-0.5c-0.7-0.3-1.2-0.7-1.6-1.2l0.6-0.7c0.2,0.2,0.4,0.4,0.6,0.6
                    c0.2,0.2,0.5,0.4,0.8,0.5c0.3,0.1,0.6,0.3,0.9,0.3c0.3,0.1,0.7,0.1,1.1,0.1c0.5,0,1-0.1,1.4-0.2c0.4-0.1,0.7-0.3,0.9-0.5
                    c0.2-0.2,0.4-0.4,0.5-0.7s0.1-0.5,0.1-0.7c0-0.5-0.2-0.9-0.5-1.2s-0.7-0.5-1.2-0.7c-0.5-0.2-1-0.3-1.6-0.5
                    c-0.6-0.1-1.1-0.3-1.6-0.5c-0.5-0.2-0.9-0.5-1.2-0.9s-0.5-0.9-0.5-1.5c0-0.4,0.1-0.8,0.3-1.2s0.4-0.7,0.8-0.9
                    c0.3-0.2,0.7-0.4,1.1-0.6s0.9-0.2,1.4-0.2c0.8,0,1.5,0.1,2.1,0.4c0.6,0.3,1.1,0.6,1.5,1.1l-0.6,0.7c-0.4-0.5-0.8-0.8-1.4-1
                    c-0.5-0.2-1.1-0.3-1.7-0.3c-0.4,0-0.7,0-1,0.1c-0.3,0.1-0.6,0.2-0.8,0.4c-0.2,0.2-0.4,0.4-0.5,0.6c-0.1,0.2-0.2,0.5-0.2,0.8
                    c0,0.3,0.1,0.6,0.3,0.9c0.2,0.2,0.4,0.4,0.7,0.6s0.6,0.3,1,0.4c0.4,0.1,0.8,0.2,1.2,0.3s0.8,0.2,1.2,0.4c0.4,0.1,0.7,0.3,1,0.6
                    c0.3,0.2,0.5,0.5,0.7,0.9s0.3,0.8,0.3,1.3c0,0.3-0.1,0.7-0.2,1.1c-0.1,0.4-0.3,0.7-0.6,1s-0.7,0.5-1.2,0.7
                    C64.1,72.2,63.5,72.3,62.8,72.3z"/>
                <path fill="#662d91" d="M86.5,72.1V61.4h0.9v10.7H86.5z"/>
                <path fill="#662d91" d="M112.8,72.3c-0.8,0-1.5-0.1-2.1-0.4c-0.7-0.3-1.2-0.6-1.7-1.1c-0.5-0.5-0.9-1.1-1.2-1.8
                    c-0.3-0.7-0.4-1.4-0.4-2.3c0-0.8,0.1-1.6,0.4-2.3c0.3-0.7,0.7-1.3,1.2-1.8c0.5-0.5,1.1-0.9,1.7-1.1c0.7-0.3,1.4-0.4,2.1-0.4
                    c0.9,0,1.7,0.2,2.3,0.5c0.7,0.3,1.2,0.8,1.7,1.3l-0.7,0.5c-0.4-0.5-0.9-0.8-1.4-1.1s-1.2-0.4-1.9-0.4c-0.6,0-1.2,0.1-1.8,0.3
                    c-0.5,0.2-1,0.6-1.4,1s-0.7,0.9-1,1.5c-0.2,0.6-0.3,1.2-0.3,1.9c0,0.7,0.1,1.3,0.3,1.9c0.2,0.6,0.5,1.1,1,1.5
                    c0.4,0.4,0.9,0.7,1.4,1s1.1,0.3,1.8,0.3c0.4,0,0.7,0,1-0.1c0.3-0.1,0.6-0.2,0.9-0.3c0.3-0.1,0.5-0.3,0.7-0.4s0.4-0.3,0.5-0.5
                    v-2.6h-4.1v-0.8h5v3.8c-0.5,0.5-1.1,1-1.8,1.3C114.5,72.1,113.7,72.3,112.8,72.3z"/>
                <path fill="#662d91" d="M144.6,72.1l-6.8-9.2v9.2H137V61.4h0.9l6.7,9.1v-9.1h0.9v10.7H144.6z"/>
            </g>
        </g>
        <path fill="#662d91" stroke="#662d91" stroke-width="2.8346" stroke-miterlimit="10" d="M231,41.8"/>
</svg>
